HIERARCHY
ROOT Hips
{
  OFFSET 0.217199 18.5065 -3.35068
  CHANNELS 6 Xposition Yposition Zposition Zrotation Xrotation Yrotation
  JOINT LHipJoint
  {
    OFFSET 0 0 0
    CHANNELS 6 Xposition Yposition Zposition Zrotation Xrotation Yrotation
    JOINT LeftUpLeg
    {
      OFFSET 1.8 -1.4 0.085
      CHANNELS 6 Xposition Yposition Zposition Zrotation Xrotation Yrotation
      JOINT LeftLeg
      {
        OFFSET 2.215 -6 0
        CHANNELS 6 Xposition Yposition Zposition Zrotation Xrotation Yrotation
        JOINT LeftFoot
        {
          OFFSET 2.5 -6.9 0
          CHANNELS 6 Xposition Yposition Zposition Zrotation Xrotation Yrotation
          JOINT LeftToeBase
          {
            OFFSET 0.2 -0.5 1.95
            CHANNELS 6 Xposition Yposition Zposition Zrotation Xrotation Yrotation
            End Site
            {
              OFFSET 0 0 1
            }
          }
        }
      }
    }
  }
  JOINT RHipJoint
  {
    OFFSET 0 0 0
    CHANNELS 6 Xposition Yposition Zposition Zrotation Xrotation Yrotation
    JOINT RightUpLeg
    {
      OFFSET -1.8 -1.4 0.085
      CHANNELS 6 Xposition Yposition Zposition Zrotation Xrotation Yrotation
      JOINT RightLeg
      {
        OFFSET -2.215 -6 0
        CHANNELS 6 Xposition Yposition Zposition Zrotation Xrotation Yrotation
        JOINT RightFoot
        {
          OFFSET -2.5 -6.9 0
          CHANNELS 6 Xposition Yposition Zposition Zrotation Xrotation Yrotation
          JOINT RightToeBase
          {
            OFFSET -0.2 -0.5 1.95
            CHANNELS 6 Xposition Yposition Zposition Zrotation Xrotation Yrotation
            End Site
            {
              OFFSET 0 0 1
            }
          }
        }
      }
    }
  }
  JOINT LowerBack
  {
    OFFSET 0 0 0
    CHANNELS 6 Xposition Yposition Zposition Zrotation Xrotation Yrotation
    JOINT Spine
    {
      OFFSET -0.087 1.94 -0.2889
      CHANNELS 6 Xposition Yposition Zposition Zrotation Xrotation Yrotation
      JOINT Spine1
      {
        OFFSET 0 1.95 0.06
        CHANNELS 6 Xposition Yposition Zposition Zrotation Xrotation Yrotation
        JOINT Neck
        {
          OFFSET 0 0 0
          CHANNELS 6 Xposition Yposition Zposition Zrotation Xrotation Yrotation
          JOINT Neck1
          {
            OFFSET 0 1.6 0.34
            CHANNELS 6 Xposition Yposition Zposition Zrotation Xrotation Yrotation
            JOINT Head
            {
              OFFSET 0 1.667 -0.24
              CHANNELS 6 Xposition Yposition Zposition Zrotation Xrotation Yrotation
              End Site
              {
                OFFSET 0 1.686 -0.12
              }
            }
          }
        }
        JOINT LeftShoulder
        {
          OFFSET 0 0 0
          CHANNELS 6 Xposition Yposition Zposition Zrotation Xrotation Yrotation
          JOINT LeftArm
          {
            OFFSET 2.7 1.55 -0.73
            CHANNELS 6 Xposition Yposition Zposition Zrotation Xrotation Yrotation
            JOINT LeftForeArm
            {
              OFFSET 5.45 0 0
              CHANNELS 6 Xposition Yposition Zposition Zrotation Xrotation Yrotation
              JOINT LeftHand
              {
                OFFSET 3.45 0 0
                CHANNELS 6 Xposition Yposition Zposition Zrotation Xrotation Yrotation
                JOINT LeftFingerBase
                {
                  OFFSET 0 0 0
                  CHANNELS 6 Xposition Yposition Zposition Zrotation Xrotation Yrotation
                  JOINT LeftHandIndex1
                  {
                    OFFSET 0.75 0 0
                    CHANNELS 6 Xposition Yposition Zposition Zrotation Xrotation Yrotation
                    End Site
                    {
                      OFFSET 0.6 0 0
                    }
                  }
                }
                JOINT LThumb
                {
                  OFFSET 0 0 0
                  CHANNELS 6 Xposition Yposition Zposition Zrotation Xrotation Yrotation
                  End Site
                  {
                    OFFSET 0.59 0 0.59
                  }
                }
              }
            }
          }
        }
        JOINT RightShoulder
        {
          OFFSET 0 0 0
          CHANNELS 6 Xposition Yposition Zposition Zrotation Xrotation Yrotation
          JOINT RightArm
          {
            OFFSET -2.7 1.55 -0.73
            CHANNELS 6 Xposition Yposition Zposition Zrotation Xrotation Yrotation
            JOINT RightForeArm
            {
              OFFSET -5.45 0 0
              CHANNELS 6 Xposition Yposition Zposition Zrotation Xrotation Yrotation
              JOINT RightHand
              {
                OFFSET -3.45 0 0
                CHANNELS 6 Xposition Yposition Zposition Zrotation Xrotation Yrotation
                JOINT RightFingerBase
                {
                  OFFSET 0 0 0
                  CHANNELS 6 Xposition Yposition Zposition Zrotation Xrotation Yrotation
                  JOINT RightHandIndex1
                  {
                    OFFSET -0.75 0 0
                    CHANNELS 6 Xposition Yposition Zposition Zrotation Xrotation Yrotation
                    End Site
                    {
                      OFFSET -0.6 0 0
                    }
                  }
                }
                JOINT RThumb
                {
                  OFFSET 0 0 0
                  CHANNELS 6 Xposition Yposition Zposition Zrotation Xrotation Yrotation
                  End Site
                  {
                    OFFSET -0.59 0 0.59
                  }
                }
              }
            }
          }
        }
      }
    }
  }
}
MOTION
Frames:	6
Frame Time:	0.00833333
0.217447 18.5065 -3.3509 0.0102197 -0.000210668 -0.00230599 0 0 0 -3.2746e-18 0 -7.76503e-19 1.8 -1.4 0.085 -20.0804 -5.01764 4.20091 2.215 -6 0 5.50102 4.96149 9.85823 2.5 -6.9 -4.44089e-16 -3.25978 0.478753 -14.5025 0.2 -0.5 1.95 -3.00613e-15 0 7.76503e-19 0 0 0 -3.2746e-18 0 -7.76503e-19 -1.8 -1.4 0.085 17.7867 -0.547759 -1.2724 -2.215 -6 0 0.0988984 2.85358 0.426793 -2.5 -6.9 0 0.580341 -2.29548 0.868574 -0.2 -0.5 1.95 1.58491e-15 0 3.88251e-19 0 0 0 -3.2746e-18 0 -7.76503e-19 -0.087 1.94 -0.2889 0.00145796 0.000174717 0.000628286 -2.77556e-17 1.95 0.06 -0.00228258 0.00284121 0.0010234 0 0 0 2.06268e-08 -16 -1.85132e-09 2.77556e-17 1.6 0.34 -2.17271e-08 21 2.35621e-09 2.77556e-17 1.667 -0.24 -0.00392528 10.9944 0.00091753 0 0 0 0.338863 0.000746013 3.49563 2.7 1.55 -0.73 -15.9353 -37.6892 -12.6169 5.45 0 0 -9.95193 38.7147 -3.99362e-05 3.45 -3.55271e-15 0 4.86946 0.359224 3.86082 0 0 0 -1.46604e-15 -4.96962e-17 -0 0.75 3.55271e-15 0 -1.51573e-15 6.4605e-16 -1.59028e-15 0 0 0 -3.04389e-15 -2.48481e-16 -1.59028e-15 0 0 0 -0.284652 0.00179364 -3.43793 -2.7 1.55 -0.73 10.8563 -15.4965 13.4981 -5.45 0 4.44089e-16 5.37308 23.5813 0.555871 -3.45 0 8.88178e-16 -11.7292 0.0434332 6.23117 0 0 0 0 1.59028e-15 -0 -0.75 3.55271e-15 -1.77636e-15 3.97569e-16 1.59028e-15 -0 0 0 0 8.82781e-32 1.59028e-15 -3.18055e-15 
0.218552 18.5066 -3.3517 0.0102196 -0.000510441 -0.0121783 0 0 0 3.56673e-18 0 -3.10601e-18 1.8 -1.4 0.085 -20.0841 -5.01158 4.20087 2.215 -6 0 5.49761 4.94753 9.86555 2.5 -6.9 4.44089e-16 -3.24859 0.482762 -14.5149 0.2 -0.5 1.95 -2.61663e-16 -1.74713e-18 3.10601e-18 0 0 0 3.56673e-18 0 -3.10601e-18 -1.8 -1.4 0.085 17.7866 -0.551183 -1.27273 -2.215 -6 4.44089e-16 0.0989069 2.85268 0.426758 -2.5 -6.9 0 0.568626 -2.29549 0.868914 -0.2 -0.5 1.95 1.22441e-15 -1.55301e-18 -3.10601e-18 0 0 0 3.56673e-18 0 -3.10601e-18 -0.087 1.94 -0.2889 0.00724913 -0.000994539 0.00336805 0 1.95 0.06 -0.0115524 0.0155899 0.00537604 0 0 0 2.06268e-08 -16 -1.85132e-09 0 1.6 0.34 -2.17271e-08 21 2.35621e-09 -2.77556e-17 1.667 -0.24 -0.0201541 10.9732 0.00464476 0 0 0 0.338505 0.000746013 3.49563 2.7 1.55 -0.73 -15.9606 -37.6924 -12.6317 5.45 0 0 -9.97155 38.6203 -3.98836e-05 3.45 0 0 4.84583 0.356913 3.89045 0 0 0 3.05631e-15 3.97569e-16 3.18055e-15 0.75 3.55271e-15 0 4.60932e-15 3.97569e-16 3.18055e-15 0 0 0 1.47846e-15 0 1.59028e-15 0 0 0 -0.284652 0.00179364 -3.43793 -2.7 1.55 -0.73 10.8661 -15.5057 13.5111 -5.45 0 -8.88178e-16 5.36698 23.5888 0.548939 -3.45 3.55271e-15 -8.88178e-16 -11.7375 0.0434318 6.24747 0 0 0 3.97569e-16 7.95139e-16 -0 -0.75 3.55271e-15 -1.77636e-15 0 7.95139e-16 -0 0 0 0 7.95139e-16 7.95139e-16 -3.18055e-15 
0.219675 18.5067 -3.3525 0.0102194 -0.000723351 -0.0221544 0 0 0 -3.60431e-18 -1.94126e-19 -0 1.8 -1.4 0.085 -20.0879 -5.00542 4.20083 2.215 -6 -4.44089e-16 5.49424 4.93318 9.87327 2.5 -6.9 0 -3.23729 0.486923 -14.5278 0.2 -0.5 1.95 2.98108e-15 3.88251e-19 -6.21202e-18 0 0 0 -3.60431e-18 -1.94126e-19 -0 -1.8 -1.4 0.085 17.7865 -0.554399 -1.27317 -2.215 -6 0 0.0989143 2.85119 0.426831 -2.5 -6.9 0 0.55676 -2.29528 0.86917 -0.2 -0.5 1.95 3.28707e-15 3.10601e-18 3.10601e-18 0 0 0 -3.60431e-18 -1.94126e-19 -0 -0.087 1.94 -0.2889 0.0130338 -0.0024627 0.00614406 2.77556e-17 1.95 0.06 -0.0208463 0.0285601 0.00977013 0 0 0 2.06268e-08 -16 -1.85132e-09 0 1.6 0.34 -2.17271e-08 21 2.35621e-09 -2.77556e-17 1.667 -0.24 -0.0364649 10.9524 0.00838065 0 0 0 0.33818 0.000746013 3.49563 2.7 1.55 -0.73 -15.9857 -37.6958 -12.6463 5.45 3.55271e-15 -1.77636e-15 -9.99159 38.5242 -3.98303e-05 3.45 -3.55271e-15 0 4.82331 0.354637 3.91905 0 0 0 1.21756e-15 6.4605e-16 3.18055e-15 0.75 0 8.88178e-16 1.16786e-15 4.47266e-16 1.59028e-15 0 0 0 -3.66509e-16 2.48481e-16 1.59028e-15 0 0 0 -0.284652 0.00179364 -3.43793 -2.7 1.55 -0.73 10.8758 -15.5149 13.5239 -5.45 -3.55271e-15 -4.44089e-16 5.3609 23.5956 0.542023 -3.45 0 8.88178e-16 -11.7457 0.0434304 6.26411 0 0 0 -3.97569e-16 0 1.27222e-14 -0.75 0 0 -3.97569e-16 0 9.54166e-15 0 0 0 -0 0 9.54166e-15 
0.220598 18.5068 -3.3534 0.0102187 -0.00189176 -0.0309894 0 0 0 5.5432e-19 1.16475e-18 -0 1.8 -1.4 0.085 -20.0908 -5.00039 4.2008 2.215 -6 0 5.49047 4.9231 9.87655 2.5 -6.9 0 -3.22715 0.489411 -14.5351 0.2 -0.5 1.95 2.03894e-15 -1.55301e-18 -6.21202e-18 0 0 0 5.5432e-19 1.16475e-18 -0 -1.8 -1.4 0.085 17.7864 -0.559896 -1.27229 -2.215 -6 0 0.0989327 2.85616 0.425721 -2.5 -6.9 4.44089e-16 0.546554 -2.29738 0.870344 -0.2 -0.5 1.95 1.92709e-15 0 -9.31803e-18 0 0 0 5.5432e-19 1.16475e-18 -0 -0.087 1.94 -0.2889 0.0188914 -0.000642954 0.00852132 -2.77556e-17 1.95 0.06 -0.0298979 0.0390946 0.0137083 0 0 0 2.06268e-08 -16 -1.85132e-09 -2.77556e-17 1.6 0.34 -2.17271e-08 21 2.35621e-09 0 1.667 -0.24 -0.0518406 10.929 0.0120148 0 0 0 0.337489 0.000746013 3.49563 2.7 1.55 -0.73 -16.0132 -37.6977 -12.6624 5.45 0 1.77636e-15 -10.007 38.4468 -3.97875e-05 3.45 0 -8.88178e-16 4.78865 0.351983 3.95902 0 0 0 1.12438e-15 0 1.59028e-15 0.75 3.55271e-15 0 -4.9075e-16 3.47873e-16 1.59028e-15 0 0 0 -4.5969e-16 -2.23633e-16 -0 0 0 0 -0.284652 0.00179364 -3.43793 -2.7 1.55 -0.73 10.8871 -15.5234 13.538 -5.45 -3.55271e-15 8.88178e-16 5.35455 23.6094 0.534926 -3.45 -3.55271e-15 0 -11.7541 0.0434294 6.277 0 0 0 -0 0 3.18055e-15 -0.75 0 -1.77636e-15 -3.97569e-16 0 6.36111e-15 0 0 0 7.95139e-16 -7.95139e-16 -0 
0.22111 18.5069 -3.35453 0.0102164 -0.00507641 -0.0374317 0 0 0 -3.56061e-18 1.55301e-18 -0 1.8 -1.4 0.085 -20.0916 -4.99753 4.20112 2.215 -6 -4.44089e-16 5.48562 4.92147 9.87058 2.5 -6.9 0 -3.2192 0.488666 -14.5307 0.2 -0.5 1.95 -1.31496e-15 -1.55301e-18 -0 0 0 0 -3.56061e-18 1.55301e-18 -0 -1.8 -1.4 0.085 17.7862 -0.57014 -1.26858 -2.215 -6 0 0.0989764 2.87461 0.42212 -2.5 -6.9 -4.44089e-16 0.539739 -2.3043 0.873439 -0.2 -0.5 1.95 5.71039e-15 3.10601e-18 6.21202e-18 0 0 0 -3.56061e-18 1.55301e-18 -0 -0.087 1.94 -0.2889 0.0249445 0.00811732 0.0100688 -2.77556e-17 1.95 0.06 -0.0384947 0.0444773 0.0166947 0 0 0 2.06268e-08 -16 -1.85132e-09 -2.77556e-17 1.6 0.34 -2.17271e-08 21 2.35621e-09 -2.77556e-17 1.667 -0.24 -0.065299 10.9002 0.01544 0 0 0 0.336022 0.000746013 3.49563 2.7 1.55 -0.73 -16.0454 -37.6966 -12.6817 5.45 0 0 -10.0127 38.4082 -3.97663e-05 3.45 0 0 4.72765 0.348494 4.02384 0 0 0 8.13775e-16 1.49089e-16 4.77083e-15 0.75 0 -8.88178e-16 7.76503e-16 -1.73937e-16 1.59028e-15 0 0 0 -7.70291e-16 -2.73329e-16 3.18055e-15 0 0 0 -0.284707 0.00179364 -3.43799 -2.7 1.55 -0.73 10.902 -15.5301 13.5544 -5.45 0 -1.33227e-15 5.34759 23.6381 0.527423 -3.45 0 0 -11.7628 0.0434289 6.28216 0 0 0 3.97569e-16 -7.95139e-16 -0 -0.75 0 0 -3.97569e-16 -7.95139e-16 3.18055e-15 0 0 0 1.19271e-15 -7.95139e-16 -0 
0.22124 18.5074 -3.35607 0.0102119 -0.0110222 -0.0408284 0 0 0 9.70628e-20 -3.10601e-18 -0 1.8 -1.4 0.085 -20.0887 -4.99426 4.20373 2.215 -6 0 5.47594 4.92343 9.85402 2.5 -6.9 -4.44089e-16 -3.21007 0.487912 -14.5139 0.2 -0.5 1.95 4.66792e-15 3.10601e-18 -1.2424e-17 0 0 0 9.70628e-20 -3.10601e-18 -0 -1.8 -1.4 0.085 17.7859 -0.585926 -1.26113 -2.215 -6 4.44089e-16 0.0990718 2.90937 0.415201 -2.5 -6.9 0 0.535841 -2.31698 0.878946 -0.2 -0.5 1.95 4.74287e-15 6.21202e-18 3.10601e-18 0 0 0 9.70628e-20 -3.10601e-18 -0 -0.087 1.94 -0.2889 0.0318986 0.0264217 0.0106549 2.77556e-17 1.95 0.06 -0.0473572 0.0426221 0.0185299 0 0 0 2.06268e-08 -16 -1.85132e-09 2.77556e-17 1.6 0.34 -2.17271e-08 21 2.35621e-09 -2.77556e-17 1.667 -0.24 -0.0769283 10.8629 0.0186555 0 0 0 0.333448 0.000746013 3.49563 2.7 1.55 -0.73 -16.0832 -37.6912 -12.7036 5.45 -3.55271e-15 -1.77636e-15 -10.0076 38.4155 -3.97703e-05 3.45 0 8.88178e-16 4.62021 0.343291 4.1351 0 0 0 2.2239e-15 -1.73937e-16 3.18055e-15 0.75 0 0 2.21769e-15 1.2424e-16 -1.59028e-15 0 0 0 6.39838e-16 -5.71506e-16 3.18055e-15 0 0 0 -0.285088 0.00179364 -3.43841 -2.7 1.55 -0.73 10.9221 -15.5348 13.5738 -5.45 -3.55271e-15 4.44089e-16 5.33943 23.6893 0.519002 -3.45 0 8.88178e-16 -11.7709 0.0434291 6.27973 0 0 0 -3.97569e-16 7.95139e-16 9.54166e-15 -0.75 0 -1.77636e-15 -7.95139e-16 0 6.36111e-15 0 0 0 -0 0 6.36111e-15 
